<?xml version="1.0" standalone="no"?>
<!DOCTYPE svg PUBLIC "-//W3C//DTD SVG 20010904//EN"
 "http://www.w3.org/TR/2001/REC-SVG-20010904/DTD/svg10.dtd">
<svg version="1.0" xmlns="http://www.w3.org/2000/svg"
 width="260.000000pt" height="260.000000pt" viewBox="0 0 260.000000 260.000000"
 preserveAspectRatio="xMidYMid meet">
<metadata>
Created by potrace 1.14, written by Peter Selinger 2001-2017
</metadata>
<g transform="translate(0.000000,260.000000) scale(0.100000,-0.100000)"
fill="#000000" stroke="none">
<path d="M0 1300 l0 -1300 1300 0 1300 0 0 1300 0 1300 -1300 0 -1300 0 0
-1300z m1054 849 c-1 -146 -137 -345 -463 -681 l-152 -156 55 -21 c91 -34 394
-137 516 -176 141 -45 160 -56 160 -94 0 -43 -21 -55 -88 -49 -73 7 -196 48
-419 142 -98 41 -190 77 -204 81 l-26 6 -6 -154 c-7 -193 -20 -227 -91 -227
-12 0 -30 6 -40 13 -16 12 -17 24 -5 200 l13 187 -22 20 c-29 27 -28 42 5 80
26 31 26 34 25 173 -1 147 -19 301 -53 447 -23 97 -20 122 16 138 49 22 81 15
98 -20 32 -69 63 -287 70 -498 l2 -75 122 135 c209 231 331 397 398 538 27 59
31 63 60 60 l30 -3 -1 -66z m1108 -380 c41 -22 62 -130 38 -193 -20 -53 -80
-25 -80 37 0 40 -20 86 -41 92 -26 9 -121 -20 -194 -58 -78 -41 -254 -215
-324 -322 -181 -275 -268 -612 -216 -834 19 -78 41 -117 80 -141 116 -72 269
-26 411 122 84 88 124 142 199 272 70 123 197 376 189 376 -12 0 -148 -41
-316 -96 -139 -46 -177 -55 -225 -52 l-58 3 0 35 c0 32 4 37 45 57 57 29 629
173 684 173 23 0 47 -5 54 -12 15 -15 16 -60 1 -75 -8 -8 -11 -147 -12 -454
l-2 -444 23 -39 c29 -49 17 -66 -45 -66 -56 0 -101 23 -109 57 -4 14 -5 183
-2 375 3 192 4 348 3 346 -2 -2 -29 -52 -61 -113 -198 -378 -364 -554 -562
-596 -83 -17 -216 -7 -275 21 -66 31 -113 90 -140 175 -17 57 -21 95 -21 205
-1 153 13 243 56 378 83 262 227 481 417 633 130 106 236 148 374 148 49 1 97
-4 109 -10z"/>
</g>
</svg>
